<?xml version="1.0" encoding="utf-8"?>
<!-- Generator: Adobe Illustrator 21.1.0, SVG Export Plug-In . SVG Version: 6.00 Build 0)  -->
<svg version="1.1" id="Layer_1" xmlns="http://www.w3.org/2000/svg" xmlns:xlink="http://www.w3.org/1999/xlink" x="0px" y="0px"
	 viewBox="0 0 43.2 57.6" style="enable-background:new 0 0 43.2 57.6;" xml:space="preserve">
<style type="text/css">
	.st0{fill:#FFFFFF;}
</style>
<path class="st0" d="M7.6,36.3C7.6,29.3,13,26,23,26h8c0-6.6-2.2-11.2-8.6-11.2c-5,0-8.1,2.9-9.7,5.3l-3.8-3
	c3.2-4.4,7.5-6.9,13.3-6.9c8.9,0,13.7,5.8,13.7,14.3v21.6h-4.5l-0.1-6.8c-2.6,5.3-7.3,7.5-12.3,7.5C12.3,46.8,7.6,43,7.6,36.3z
	 M31,30h-7.5c-7,0-10.5,1.8-10.5,6.5c0,4.2,2.9,5.9,6.6,5.9C26.8,42.4,31,35.7,31,30z"/>
</svg>
