<?xml version="1.0" encoding="utf-8"?>
<!-- Generator: Adobe Illustrator 21.1.0, SVG Export Plug-In . SVG Version: 6.00 Build 0)  -->
<svg version="1.1" id="Layer_1" xmlns="http://www.w3.org/2000/svg" xmlns:xlink="http://www.w3.org/1999/xlink" x="0px" y="0px"
	 viewBox="0 0 216 90" style="enable-background:new 0 0 216 90;" xml:space="preserve">
<style type="text/css">
	.st0{fill:#FFFFFF;}
</style>
<path class="st0" d="M8.1,27h5.3v4.8c2.3-3.4,6-5.5,10.7-5.5c9.4,0,14.3,8.2,14.3,18.3c0,9.9-4.9,18.3-14.3,18.3
	c-4.5,0-8.4-2-10.8-5.5v20.2H8.1V27z M33.2,44.5c0-7.1-3.1-13.9-10.2-13.9c-7.1,0-10.1,6.7-10.1,13.9c0,7.2,3,13.9,10.1,13.9
	C30.1,58.4,33.2,51.7,33.2,44.5z"/>
<path class="st0" d="M95.7,27h5.2v6.2c1.8-4.3,5.9-7,10.4-7c2.4,0,4.4,0.8,5.7,1.8l-2.2,4.5c-1.2-1-2.6-1.3-4.3-1.3
	c-6,0-9.6,4.8-9.6,13.3v17.5h-5.2V27z"/>
<path class="st0" d="M131,52.8V31.3h-5.6V27h5.7v-7.9l5.2-4.9V27h8.9v4.3h-8.9v21.6c0,3.9,1.9,5.7,4.5,5.7c1.2,0,2.4-0.4,3.5-0.9
	v4.5c-0.8,0.3-2.6,0.7-4.7,0.7C133.3,62.8,131,58.8,131,52.8z"/>
<path class="st0" d="M154.6,52.3c0-7,5.5-10.3,15.5-10.3h8c0-6.6-2.2-11.2-8.6-11.2c-5,0-8.1,2.9-9.7,5.3l-3.8-3
	c3.2-4.4,7.5-6.9,13.3-6.9c8.9,0,13.7,5.8,13.7,14.3v21.6h-4.5l-0.1-6.8c-2.6,5.3-7.3,7.5-12.3,7.5C159.3,62.8,154.6,59,154.6,52.3z
	 M178,46h-7.5c-7,0-10.5,1.8-10.5,6.5c0,4.2,2.9,5.9,6.6,5.9C173.8,58.4,178,51.7,178,46z"/>
<path class="st0" d="M208.5,57.9v4.2c-1.1,0.4-3,0.7-4.7,0.7c-5.3,0-5.7-3.6-5.7-7.8V12.4h5.3v43.8c0,0.1,0.1,2,1.7,2
	C206.3,58.3,207.7,58,208.5,57.9z"/>
<g>
	<path class="st0" d="M95.8,74.4h2.3c2.9,0,4.5,1.6,4.5,4.6c0,2.8-1.6,4.4-4.5,4.4h-2.3V74.4z M97.9,82.5c2.1,0,3.7-1.1,3.7-3.6
		c0-2.3-1.2-3.6-3.5-3.6h-1.3v7.1H97.9z"/>
	<path class="st0" d="M105,80.2c0-1.7,0.9-3.3,2.8-3.3c2.1,0,2.7,1.6,2.7,3.1c0,0.2,0,0.4,0,0.5H106c0,1.1,0.6,2.1,1.9,2.1
		c0.7,0,1.3-0.2,1.8-0.7l0.6,0.5c-0.7,0.7-1.4,1-2.4,1C105.9,83.5,105,82,105,80.2z M109.5,79.8c0-1-0.5-2-1.8-2
		c-1.2,0-1.7,0.9-1.8,2H109.5z"/>
	<path class="st0" d="M112.1,77h1l1.8,5.1l1.8-5.1h1l-2.4,6.3h-0.8L112.1,77z"/>
	<path class="st0" d="M120,77h1v0.9c0.4-0.6,1.1-1,1.9-1c1.7,0,2.6,1.5,2.6,3.3c0,1.8-0.9,3.3-2.6,3.3c-0.8,0-1.5-0.4-1.9-1v3.6h-1
		V77z M124.5,80.2c0-1.3-0.6-2.5-1.8-2.5c-1.3,0-1.8,1.2-1.8,2.5c0,1.3,0.5,2.5,1.8,2.5C123.9,82.7,124.5,81.5,124.5,80.2z"/>
	<path class="st0" d="M127.6,80.2c0-1.8,1.2-3.3,3-3.3c1.8,0,3,1.5,3,3.3c0,1.8-1.2,3.3-3,3.3C128.8,83.5,127.6,82,127.6,80.2z
		 M132.6,80.2c0-1.3-0.6-2.5-2-2.5s-2.1,1.2-2.1,2.5c0,1.3,0.6,2.5,2,2.5C132,82.7,132.6,81.5,132.6,80.2z"/>
	<path class="st0" d="M136.2,74.4h1.1v1.2h-1.1V74.4z M136.2,77h0.9v6.3h-0.9V77z"/>
	<path class="st0" d="M140.3,77h0.9v1.1c0.4-0.7,1.1-1.2,2-1.2c1.5,0,2.1,1.2,2.1,2.6v3.9h-0.9v-3.8c0-0.9-0.3-1.9-1.4-1.9
		c-1,0-1.8,0.8-1.8,2.4v3.3h-0.9V77z"/>
	<path class="st0" d="M148.6,81.7v-3.9h-1V77h1v-1.4l0.9-0.9V77h1.6v0.8h-1.6v3.9c0,0.7,0.3,1,0.8,1c0.2,0,0.4-0.1,0.6-0.2v0.8
		c-0.1,0.1-0.5,0.1-0.9,0.1C149.1,83.5,148.6,82.8,148.6,81.7z"/>
	<path class="st0" d="M157.6,81.1l0.9-0.3c0.1,1.2,1.1,1.8,2.2,1.8c1.1,0,1.8-0.5,1.8-1.6c0-2.3-4.3-1.7-4.3-4.4
		c0-1.4,1.1-2.3,2.4-2.3c1.1,0,1.9,0.4,2.5,1.4l-0.8,0.5c-0.4-0.7-1-1-1.7-1c-0.7,0-1.4,0.5-1.4,1.3c0,2,4.3,1.5,4.3,4.4
		c0,1.6-1.2,2.6-2.8,2.6C159.2,83.5,157.8,82.7,157.6,81.1z"/>
	<path class="st0" d="M166.3,81.7v-3.9h-1V77h1v-1.4l0.9-0.9V77h1.6v0.8h-1.6v3.9c0,0.7,0.3,1,0.8,1c0.2,0,0.4-0.1,0.6-0.2v0.8
		c-0.1,0.1-0.5,0.1-0.9,0.1C166.7,83.5,166.3,82.8,166.3,81.7z"/>
	<path class="st0" d="M171.2,80.7V77h0.9v3.7c0,0.9,0.2,1.9,1.3,1.9c1,0,1.9-0.9,1.9-2.2V77h0.9v6.3h-0.9v-1.1c-0.3,0.5-1,1.2-2,1.2
		C171.8,83.5,171.2,82.3,171.2,80.7z"/>
	<path class="st0" d="M184.4,74.4v9h-0.9l0-0.9c-0.4,0.6-1,1-2,1c-1.6,0-2.5-1.5-2.5-3.3c0-1.8,0.9-3.3,2.5-3.3c0.9,0,1.6,0.4,2,1
		v-3.5H184.4z M183.6,80.2c0-1.3-0.5-2.5-1.8-2.5c-1.3,0-1.8,1.2-1.8,2.5c0,1.3,0.5,2.5,1.8,2.5C183,82.7,183.6,81.5,183.6,80.2z"/>
	<path class="st0" d="M187.5,74.4h1.1v1.2h-1.1V74.4z M187.6,77h0.9v6.3h-0.9V77z"/>
	<path class="st0" d="M191.2,80.2c0-1.8,1.2-3.3,3-3.3c1.8,0,3,1.5,3,3.3c0,1.8-1.2,3.3-3,3.3C192.4,83.5,191.2,82,191.2,80.2z
		 M196.2,80.2c0-1.3-0.6-2.5-2-2.5s-2.1,1.2-2.1,2.5c0,1.3,0.6,2.5,2,2.5C195.6,82.7,196.2,81.5,196.2,80.2z"/>
	<path class="st0" d="M199.2,81.9l0.8-0.4c0.2,0.7,0.7,1.2,1.6,1.2c0.7,0,1.2-0.4,1.2-1c0-1.7-3.4-0.9-3.4-3c0-1.1,0.9-1.8,2-1.8
		c1,0,1.7,0.5,2.1,1.3l-0.7,0.4c-0.3-0.6-0.7-0.9-1.4-0.9c-0.7,0-1.1,0.4-1.1,0.9c0,1.5,3.4,0.7,3.4,3c0,1.3-1.1,1.9-2.2,1.9
		C200.3,83.5,199.5,82.8,199.2,81.9z"/>
</g>
<path class="st0" d="M79,6.9c-9.3-3.3-18.4,2.2-21.7,11.7c-1.1,3-1.4,6.1-1.1,9c1.6-1.1,3.3-1.9,5.1-2.5c0.1-1.6,0.5-3.2,1-4.8
	c2.3-6.6,8-11.9,15.4-9.3c7.4,2.6,8.4,10.2,6.1,16.8c-2.3,6.6-8,12-15.4,9.4c-2.3-0.8-4-2.1-5.1-3.7c-1.3,0.7-2.5,1.7-3.5,2.9
	c1.8,2.2,4.1,3.9,7.1,5c9.3,3.3,18.6-2.3,21.9-11.7C92,20.2,88.3,10.2,79,6.9z"/>
<g>
	<path class="st0" d="M54.1,45.3c0.2-1.5,0.5-3.1,1-4.6c2.3-6.6,8-11.9,15.4-9.3c2.3,0.8,4,2.1,5.1,3.7c1.3-0.7,2.5-1.6,3.4-2.8
		c-1.8-2.2-4.2-4-7.2-5c-9.3-3.3-18.4,2.2-21.7,11.7c-1.1,3-1.4,6-1.1,8.9C50.5,46.7,52.3,45.8,54.1,45.3z"/>
	<path class="st0" d="M82.6,41c-1.6,1.1-3.2,1.9-5,2.5c-0.1,1.6-0.5,3.2-1,4.7c-2.3,6.6-8,12-15.4,9.4c-2.3-0.8-4-2.2-5.2-3.9
		c-1.3,0.7-2.5,1.7-3.5,2.9c1.8,2.2,4.1,4,7.1,5C68.9,65,78.2,59.5,81.5,50C82.6,47,82.9,43.9,82.6,41z"/>
</g>
<path class="st0" d="M70.4,63.9c-0.2,1.5-0.5,3.1-1,4.6c-2.3,6.6-8,12-15.4,9.4c-7.3-2.6-8.4-10.3-6-17c2.3-6.6,8-11.9,15.4-9.3
	c2.3,0.8,4,2.2,5.2,3.8c1.3-0.7,2.5-1.7,3.4-2.9c-1.8-2.2-4.2-4-7.2-5.1c-9.3-3.3-18.4,2.2-21.7,11.7c-3.3,9.4,0.2,19.5,9.5,22.8
	c9.3,3.3,18.6-2.3,21.9-11.7c1-3,1.4-6,1.1-8.8C73.9,62.5,72.2,63.3,70.4,63.9z"/>
</svg>
