<?xml version="1.0" encoding="utf-8"?>
<!-- Generator: Adobe Illustrator 21.1.0, SVG Export Plug-In . SVG Version: 6.00 Build 0)  -->
<svg version="1.1" id="Layer_1" xmlns="http://www.w3.org/2000/svg" xmlns:xlink="http://www.w3.org/1999/xlink" x="0px" y="0px"
	 viewBox="0 0 43.2 57.6" style="enable-background:new 0 0 43.2 57.6;" xml:space="preserve">
<style type="text/css">
	.st0{fill:#FFFFFF;}
</style>
<path class="st0" d="M26,11.9C16.6,8.6,7.6,14.1,4.3,23.6c-1.1,3-1.4,6.1-1.1,9c1.6-1.1,3.3-1.9,5.1-2.5c0.1-1.6,0.5-3.2,1-4.8
	c2.3-6.6,8-11.9,15.4-9.3c7.4,2.6,8.4,10.2,6.1,16.8c-2.3,6.6-8,12-15.4,9.4c-2.3-0.8-4-2.1-5.1-3.7c-1.3,0.7-2.5,1.7-3.5,2.9
	c1.8,2.2,4.1,3.9,7.1,5c9.3,3.3,18.6-2.3,21.9-11.7C39,25.2,35.3,15.2,26,11.9z"/>
</svg>
