<?xml version="1.0" encoding="utf-8"?>
<!-- Generator: Adobe Illustrator 21.1.0, SVG Export Plug-In . SVG Version: 6.00 Build 0)  -->
<svg version="1.1" id="Layer_1" xmlns="http://www.w3.org/2000/svg" xmlns:xlink="http://www.w3.org/1999/xlink" x="0px" y="0px"
	 viewBox="0 0 43.2 57.6" style="enable-background:new 0 0 43.2 57.6;" xml:space="preserve">
<style type="text/css">
	.st0{fill:#FFFFFF;}
</style>
<g>
	<path class="st0" d="M9.1,29.3c0.2-1.5,0.5-3.1,1-4.6c2.3-6.6,8-11.9,15.4-9.3c2.3,0.8,4,2.1,5.1,3.7c1.3-0.7,2.5-1.6,3.4-2.8
		c-1.8-2.2-4.2-4-7.2-5C17.4,8,8.4,13.5,5.1,22.9c-1.1,3-1.4,6-1.1,8.9C5.5,30.7,7.3,29.8,9.1,29.3z"/>
	<path class="st0" d="M37.6,25c-1.6,1.1-3.2,1.9-5,2.5c-0.1,1.6-0.5,3.2-1,4.7c-2.3,6.6-8,12-15.4,9.4c-2.3-0.8-4-2.2-5.2-3.9
		c-1.3,0.7-2.5,1.7-3.5,2.9c1.8,2.2,4.1,4,7.1,5C23.9,49,33.2,43.5,36.5,34C37.6,31,37.9,27.9,37.6,25z"/>
</g>
</svg>
