<?xml version="1.0" encoding="utf-8"?>
<!-- Generator: Adobe Illustrator 21.1.0, SVG Export Plug-In . SVG Version: 6.00 Build 0)  -->
<svg version="1.1" id="Layer_1" xmlns="http://www.w3.org/2000/svg" xmlns:xlink="http://www.w3.org/1999/xlink" x="0px" y="0px"
	 viewBox="0 0 43.2 57.6" style="enable-background:new 0 0 43.2 57.6;" xml:space="preserve">
<style type="text/css">
	.st0{fill:#FFFFFF;}
</style>
<path class="st0" d="M34.4,27.9c-0.2,1.5-0.5,3.1-1,4.6c-2.3,6.6-8,12-15.4,9.4c-7.3-2.6-8.4-10.3-6-17c2.3-6.6,8-11.9,15.4-9.3
	c2.3,0.8,4,2.2,5.2,3.8c1.3-0.7,2.5-1.7,3.4-2.9c-1.8-2.2-4.2-4-7.2-5.1C19.3,8.2,10.3,13.7,7,23.1c-3.3,9.4,0.2,19.5,9.5,22.8
	c9.3,3.3,18.6-2.3,21.9-11.7c1-3,1.4-6,1.1-8.8C37.9,26.5,36.2,27.3,34.4,27.9z"/>
<path class="st0" d="M34.4,27.9c-0.2,1.5-0.5,3.1-1,4.6c-2.3,6.6-8,12-15.4,9.4c-7.3-2.6-8.4-10.3-6-17c2.3-6.6,8-11.9,15.4-9.3
	c2.3,0.8,4,2.2,5.2,3.8c1.3-0.7,2.5-1.7,3.4-2.9c-1.8-2.2-4.2-4-7.2-5.1C19.3,8.2,10.3,13.7,7,23.1c-3.3,9.4,0.2,19.5,9.5,22.8
	c9.3,3.3,18.6-2.3,21.9-11.7c1-3,1.4-6,1.1-8.8C37.9,26.5,36.2,27.3,34.4,27.9z"/>
</svg>
