<?xml version="1.0" encoding="utf-8"?>
<!-- Generator: Adobe Illustrator 21.1.0, SVG Export Plug-In . SVG Version: 6.00 Build 0)  -->
<svg version="1.1" id="Layer_1" xmlns="http://www.w3.org/2000/svg" xmlns:xlink="http://www.w3.org/1999/xlink" x="0px" y="0px"
	 viewBox="0 0 115.2 14.4" style="enable-background:new 0 0 115.2 14.4;" xml:space="preserve">
<style type="text/css">
	.st0{fill:#FFFFFF;}
</style>
<g>
	<path class="st0" d="M4,1.5h2.3c2.9,0,4.5,1.6,4.5,4.6c0,2.8-1.6,4.4-4.5,4.4H4V1.5z M6.1,9.5c2.1,0,3.7-1.1,3.7-3.6
		c0-2.3-1.2-3.6-3.5-3.6H5v7.1H6.1z"/>
	<path class="st0" d="M13.2,7.3c0-1.7,0.9-3.3,2.8-3.3c2.1,0,2.7,1.6,2.7,3.1c0,0.2,0,0.4,0,0.5h-4.4c0,1.1,0.6,2.1,1.9,2.1
		c0.7,0,1.3-0.2,1.8-0.7l0.6,0.5c-0.7,0.7-1.4,1-2.4,1C14.1,10.5,13.2,9,13.2,7.3z M17.7,6.8c0-1-0.5-2-1.8-2c-1.2,0-1.7,0.9-1.8,2
		H17.7z"/>
	<path class="st0" d="M20.3,4.1h1l1.8,5.1l1.8-5.1h1l-2.4,6.3h-0.8L20.3,4.1z"/>
	<path class="st0" d="M28.4,1.5h2.5c1.7,0,2.9,0.9,2.9,2.5c0,1.6-1.1,2.4-2.9,2.4h-1.5v4h-1V1.5z M30.9,5.5c1.2,0,1.9-0.5,1.9-1.5
		c0-1-0.7-1.6-1.9-1.6h-1.5v3.1H30.9z"/>
	<path class="st0" d="M35.4,7.3c0-1.8,1.2-3.3,3-3.3c1.8,0,3,1.5,3,3.3c0,1.8-1.2,3.3-3,3.3C36.6,10.6,35.4,9.1,35.4,7.3z M40.5,7.3
		c0-1.3-0.6-2.5-2-2.5S36.4,6,36.4,7.3c0,1.3,0.6,2.5,2,2.5C39.8,9.8,40.5,8.5,40.5,7.3z"/>
	<path class="st0" d="M44,1.5h1.1v1.2H44V1.5z M44,4.1H45v6.3H44V4.1z"/>
	<path class="st0" d="M48.1,4.1h0.9v1.1c0.4-0.7,1.1-1.2,2-1.2c1.5,0,2.1,1.2,2.1,2.6v3.9h-0.9V6.7c0-0.9-0.3-1.9-1.4-1.9
		c-1,0-1.8,0.8-1.8,2.4v3.3h-0.9V4.1z"/>
	<path class="st0" d="M56.5,8.8V4.9h-1V4.1h1V2.7l0.9-0.9v2.3H59v0.8h-1.6v3.9c0,0.7,0.3,1,0.8,1c0.2,0,0.4-0.1,0.6-0.2v0.8
		c-0.1,0.1-0.5,0.1-0.9,0.1C56.9,10.6,56.5,9.8,56.5,8.8z"/>
	<path class="st0" d="M65.4,8.1l0.9-0.3c0.1,1.2,1.1,1.8,2.2,1.8c1.1,0,1.8-0.5,1.8-1.6c0-2.3-4.3-1.7-4.3-4.4
		c0-1.4,1.1-2.3,2.4-2.3c1.1,0,1.9,0.4,2.5,1.4l-0.8,0.5c-0.4-0.7-1-1-1.7-1c-0.7,0-1.4,0.5-1.4,1.3c0,2,4.3,1.5,4.3,4.4
		c0,1.6-1.2,2.6-2.8,2.6C67,10.5,65.7,9.7,65.4,8.1z"/>
	<path class="st0" d="M74.1,8.8V4.9h-1V4.1h1V2.7l0.9-0.9v2.3h1.6v0.8h-1.6v3.9c0,0.7,0.3,1,0.8,1c0.2,0,0.4-0.1,0.6-0.2v0.8
		c-0.1,0.1-0.5,0.1-0.9,0.1C74.5,10.6,74.1,9.8,74.1,8.8z"/>
	<path class="st0" d="M79,7.8V4.1H80v3.7c0,0.9,0.2,1.9,1.3,1.9c1,0,1.9-0.9,1.9-2.2V4.1h0.9v6.3h-0.9V9.4c-0.3,0.5-1,1.2-2,1.2
		C79.6,10.6,79,9.4,79,7.8z"/>
	<path class="st0" d="M92.2,1.5v9h-0.9l0-0.9c-0.4,0.6-1,1-2,1c-1.6,0-2.5-1.5-2.5-3.3c0-1.8,0.9-3.3,2.5-3.3c0.9,0,1.6,0.4,2,1V1.5
		H92.2z M91.4,7.3c0-1.3-0.5-2.5-1.8-2.5c-1.3,0-1.8,1.2-1.8,2.5c0,1.3,0.5,2.5,1.8,2.5C90.9,9.8,91.4,8.6,91.4,7.3z"/>
	<path class="st0" d="M95.3,1.5h1.1v1.2h-1.1V1.5z M95.4,4.1h0.9v6.3h-0.9V4.1z"/>
	<path class="st0" d="M99,7.3c0-1.8,1.2-3.3,3-3.3c1.8,0,3,1.5,3,3.3c0,1.8-1.2,3.3-3,3.3C100.2,10.6,99,9.1,99,7.3z M104,7.3
		c0-1.3-0.6-2.5-2-2.5S99.9,6,99.9,7.3c0,1.3,0.6,2.5,2,2.5C103.4,9.8,104,8.5,104,7.3z"/>
	<path class="st0" d="M107,9l0.8-0.4c0.2,0.7,0.7,1.2,1.6,1.2c0.7,0,1.2-0.4,1.2-1c0-1.7-3.4-0.9-3.4-3c0-1.1,0.9-1.8,2-1.8
		c1,0,1.7,0.5,2.1,1.3l-0.7,0.4c-0.3-0.6-0.7-0.9-1.4-0.9c-0.7,0-1.1,0.4-1.1,0.9c0,1.5,3.4,0.7,3.4,3c0,1.3-1.1,1.9-2.2,1.9
		C108.2,10.6,107.3,9.8,107,9z"/>
</g>
</svg>
