<?xml version="1.0" encoding="utf-8"?>
<!-- Generator: Adobe Illustrator 21.1.0, SVG Export Plug-In . SVG Version: 6.00 Build 0)  -->
<svg version="1.1" id="Layer_1" xmlns="http://www.w3.org/2000/svg" xmlns:xlink="http://www.w3.org/1999/xlink" x="0px" y="0px"
	 viewBox="0 0 115.2 14.4" style="enable-background:new 0 0 115.2 14.4;" xml:space="preserve">
<style type="text/css">
	.st0{fill:#FFFFFF;}
</style>
<g>
	<path class="st0" d="M3.8,1.4h2.3C9,1.4,10.6,3,10.6,6c0,2.8-1.6,4.4-4.5,4.4H3.8V1.4z M5.9,9.5c2.1,0,3.7-1.1,3.7-3.6
		c0-2.3-1.2-3.6-3.5-3.6H4.8v7.1H5.9z"/>
	<path class="st0" d="M13,7.2C13,5.5,13.9,4,15.7,4c2.1,0,2.7,1.6,2.7,3.1c0,0.2,0,0.4,0,0.5H14c0,1.1,0.6,2.1,1.9,2.1
		c0.7,0,1.3-0.2,1.8-0.7l0.6,0.5c-0.7,0.7-1.4,1-2.4,1C13.9,10.5,13,9,13,7.2z M17.5,6.8c0-1-0.5-2-1.8-2c-1.2,0-1.7,0.9-1.8,2H17.5
		z"/>
	<path class="st0" d="M20.1,4h1l1.8,5.1L24.6,4h1l-2.4,6.3h-0.8L20.1,4z"/>
	<path class="st0" d="M28,4h1v0.9c0.4-0.6,1.1-1,1.9-1c1.7,0,2.6,1.5,2.6,3.3c0,1.8-0.9,3.3-2.6,3.3c-0.8,0-1.5-0.4-1.9-1v3.6h-1V4z
		 M32.5,7.2c0-1.3-0.6-2.5-1.8-2.5c-1.3,0-1.8,1.2-1.8,2.5c0,1.3,0.5,2.5,1.8,2.5C31.9,9.7,32.5,8.5,32.5,7.2z"/>
	<path class="st0" d="M35.6,7.2c0-1.8,1.2-3.3,3-3.3c1.8,0,3,1.5,3,3.3c0,1.8-1.2,3.3-3,3.3C36.8,10.5,35.6,9,35.6,7.2z M40.6,7.2
		c0-1.3-0.6-2.5-2-2.5s-2.1,1.2-2.1,2.5c0,1.3,0.6,2.5,2,2.5C40,9.7,40.6,8.5,40.6,7.2z"/>
	<path class="st0" d="M44.2,1.4h1.1v1.2h-1.1V1.4z M44.2,4h0.9v6.3h-0.9V4z"/>
	<path class="st0" d="M48.3,4h0.9v1.1c0.4-0.7,1.1-1.2,2-1.2c1.5,0,2.1,1.2,2.1,2.6v3.9h-0.9V6.6c0-0.9-0.3-1.9-1.4-1.9
		c-1,0-1.8,0.8-1.8,2.4v3.3h-0.9V4z"/>
	<path class="st0" d="M56.6,8.7V4.8h-1V4h1V2.6l0.9-0.9V4h1.6v0.8h-1.6v3.9c0,0.7,0.3,1,0.8,1c0.2,0,0.4-0.1,0.6-0.2v0.8
		c-0.1,0.1-0.5,0.1-0.9,0.1C57.1,10.5,56.6,9.8,56.6,8.7z"/>
	<path class="st0" d="M65.6,8.1l0.9-0.3c0.1,1.2,1.1,1.8,2.2,1.8c1.1,0,1.8-0.5,1.8-1.6c0-2.3-4.3-1.7-4.3-4.4
		c0-1.4,1.1-2.3,2.4-2.3c1.1,0,1.9,0.4,2.5,1.4l-0.8,0.5c-0.4-0.7-1-1-1.7-1c-0.7,0-1.4,0.5-1.4,1.3c0,2,4.3,1.5,4.3,4.4
		c0,1.6-1.2,2.6-2.8,2.6C67.2,10.5,65.8,9.7,65.6,8.1z"/>
	<path class="st0" d="M74.3,8.7V4.8h-1V4h1V2.6l0.9-0.9V4h1.6v0.8h-1.6v3.9c0,0.7,0.3,1,0.8,1c0.2,0,0.4-0.1,0.6-0.2v0.8
		c-0.1,0.1-0.5,0.1-0.9,0.1C74.7,10.5,74.3,9.8,74.3,8.7z"/>
	<path class="st0" d="M79.2,7.7V4h0.9v3.7c0,0.9,0.2,1.9,1.3,1.9c1,0,1.9-0.9,1.9-2.2V4h0.9v6.3h-0.9V9.3c-0.3,0.5-1,1.2-2,1.2
		C79.8,10.5,79.2,9.3,79.2,7.7z"/>
	<path class="st0" d="M92.4,1.4v9h-0.9l0-0.9c-0.4,0.6-1,1-2,1C87.9,10.5,87,9,87,7.2c0-1.8,0.9-3.3,2.5-3.3c0.9,0,1.6,0.4,2,1V1.4
		H92.4z M91.6,7.2c0-1.3-0.5-2.5-1.8-2.5c-1.3,0-1.8,1.2-1.8,2.5c0,1.3,0.5,2.5,1.8,2.5C91,9.7,91.6,8.5,91.6,7.2z"/>
	<path class="st0" d="M95.5,1.4h1.1v1.2h-1.1V1.4z M95.6,4h0.9v6.3h-0.9V4z"/>
	<path class="st0" d="M99.2,7.2c0-1.8,1.2-3.3,3-3.3c1.8,0,3,1.5,3,3.3c0,1.8-1.2,3.3-3,3.3C100.4,10.5,99.2,9,99.2,7.2z M104.2,7.2
		c0-1.3-0.6-2.5-2-2.5s-2.1,1.2-2.1,2.5c0,1.3,0.6,2.5,2,2.5C103.6,9.7,104.2,8.5,104.2,7.2z"/>
	<path class="st0" d="M107.2,8.9l0.8-0.4c0.2,0.7,0.7,1.2,1.6,1.2c0.7,0,1.2-0.4,1.2-1c0-1.7-3.4-0.9-3.4-3c0-1.1,0.9-1.8,2-1.8
		c1,0,1.7,0.5,2.1,1.3l-0.7,0.4c-0.3-0.6-0.7-0.9-1.4-0.9c-0.7,0-1.1,0.4-1.1,0.9c0,1.5,3.4,0.7,3.4,3c0,1.3-1.1,1.9-2.2,1.9
		C108.3,10.5,107.5,9.8,107.2,8.9z"/>
</g>
</svg>
